/* XPM */
static char *Free_Converter_com_bitcoin64_gy_71412247[] = {
/* columns rows colors chars-per-pixel */
"64 64 117 2 ",
"   c #6F653F",
".  c #70653F",
"X  c #72673F",
"o  c #73683E",
"O  c #776B3D",
"+  c #75693E",
"@  c #7B6E3C",
"#  c #7F713B",
"$  c #7E703C",
"%  c #4E4B47",
"&  c #4E4C47",
"*  c #4F4C47",
"=  c #4B4948",
"-  c #4C4A48",
";  c #4D4B48",
":  c #504D47",
">  c #514E47",
",  c #524E46",
"<  c #534F46",
"1  c #555145",
"2  c #555146",
"3  c #595445",
"4  c #5A5544",
"5  c #5B5544",
"6  c #5B5644",
"7  c #5C5644",
"8  c #5D5744",
"9  c #5E5843",
"0  c #5F5843",
"q  c #615A43",
"w  c #635B42",
"e  c #675E41",
"r  c #655D42",
"t  c #685F41",
"y  c #6A6140",
"u  c #6B6240",
"i  c #6C6240",
"p  c #6E6440",
"a  c #80723B",
"s  c #81723B",
"d  c #81733B",
"f  c #82733B",
"g  c #85753A",
"h  c #85763A",
"j  c #86763A",
"k  c #887839",
"l  c #897839",
"z  c #8A7939",
"x  c #8B7A39",
"c  c #8C7B38",
"v  c #8F7D38",
"b  c #938037",
"n  c #948136",
"m  c #948137",
"M  c #958236",
"N  c #998535",
"B  c #9A8635",
"V  c #9B8635",
"C  c #9C8735",
"Z  c #9E8934",
"A  c #9F8934",
"S  c #B2982F",
"D  c #B3992F",
"F  c #B4992F",
"G  c #B49A2F",
"H  c #B59A2F",
"J  c #B69B2E",
"K  c #B79C2E",
"L  c #BA9E2D",
"P  c #B89D2E",
"I  c #A18B33",
"U  c #A38D33",
"Y  c #A48D33",
"T  c #A58E32",
"R  c #A68F32",
"E  c #A78F32",
"W  c #A79032",
"Q  c #A99131",
"!  c #AB9331",
"~  c #A89032",
"^  c #A99132",
"/  c #AD9431",
"(  c #B19730",
")  c #BCA02D",
"_  c #BEA12C",
"`  c #BFA22C",
"'  c #C2A42B",
"]  c #C5A72B",
"[  c #C6A72B",
"{  c #C0A22C",
"}  c #C0A32C",
"|  c #C1A42C",
" . c #CBAB29",
".. c #C8A92A",
"X. c #D8B526",
"o. c #D9B626",
"O. c #DAB626",
"+. c #DAB726",
"@. c #DCB825",
"#. c #DEB925",
"$. c #D3B128",
"%. c #E4BE23",
"&. c #E0BB24",
"*. c #E1BC24",
"=. c #E3BD24",
"-. c #E6C023",
";. c #E7C023",
":. c #E8C123",
">. c #E9C222",
",. c #EBC322",
"<. c #EBC422",
"1. c #EDC521",
"2. c #EEC621",
"3. c #F0C720",
"4. c #F1C820",
"5. c #F2C920",
"6. c None",
/* pixels */
"6.6.6.6.6.6.6.6.6.6.6.6.6.6.6.6.6.6.6.6.6.6.6.6.6.6.= = = = = = = = = = = = 6.6.6.6.6.6.6.6.6.6.6.6.6.6.6.6.6.6.6.6.6.6.6.6.6.6.",
"6.6.6.6.6.6.6.6.6.6.6.6.6.6.6.6.6.6.6.6.6.6.= = = = = = = = = = = = = = = = = = = = 6.6.6.6.6.6.6.6.6.6.6.6.6.6.6.6.6.6.6.6.6.6.",
"6.6.6.6.6.6.6.6.6.6.6.6.6.6.6.6.6.6.6.6.= = = = = = = = = = = = = = = = = = = = = = = = 6.6.6.6.6.6.6.6.6.6.6.6.6.6.6.6.6.6.6.6.",
"6.6.6.6.6.6.6.6.6.6.6.6.6.6.6.6.6.= = = = = = = = = = = = = = = = = = = = = = = = = = = = = = 6.6.6.6.6.6.6.6.6.6.6.6.6.6.6.6.6.",
"6.6.6.6.6.6.6.6.6.6.6.6.6.6.6.6.= = = = = = = = = = = = = = = = = = = = = = = = = = = = = = = = 6.6.6.6.6.6.6.6.6.6.6.6.6.6.6.6.",
"6.6.6.6.6.6.6.6.6.6.6.6.6.6.= = = = = = = = = = = = = = = = = = = = = = = = = = = = = = = = = = = = 6.6.6.6.6.6.6.6.6.6.6.6.6.6.",
"6.6.6.6.6.6.6.6.6.6.6.6.6.= = = = = = = = = = = = = = = = = = = = = = = = = = = = = = = = = = = = = = 6.6.6.6.6.6.6.6.6.6.6.6.6.",
"6.6.6.6.6.6.6.6.6.6.6.= = = = = = = = = = = = = = = = = = = = = = = = = = = = = = = = = = = = = = = = = = 6.6.6.6.6.6.6.6.6.6.6.",
"6.6.6.6.6.6.6.6.6.6.= = = = = = = = = = = = = = = = = = = = = = = = = = = = = = = = = = = = = = = = = = = = 6.6.6.6.6.6.6.6.6.6.",
"6.6.6.6.6.6.6.6.6.= = = = = = = = = = = = Y Q Q Q Q M = = = = = = = = = 5 Q W Q Q Q a = = = = = = = = = = = = 6.6.6.6.6.6.6.6.6.",
"6.6.6.6.6.6.6.6.= = = = = = = = = = = = = J 5.5.5.5.3.7 = = = = = = = = B 5.5.5.5.5.+ % = = = = = = = = = = = = 6.6.6.6.6.6.6.6.",
"6.6.6.6.6.6.6.= = = = = = = = = = = = = = + 5.5.5.5.5.B = = = = = = = - +.5.5.5.5.@.= = = = = = = = = = = = = = = 6.6.6.6.6.6.6.",
"6.6.6.6.6.6.6.= = = = = = = = = = = = = = - +.5.5.5.5.+.- = = = = = = o 5.5.5.5.5.B = = = = = = = = = = = = = = = 6.6.6.6.6.6.6.",
"6.6.6.6.6.6.= = = = = = = 5 y y y y y y y y Q 5.5.5.5.5.c y y y y y y ` 5.5.5.5.3.7 = = = = = = = = = = = = = = = = 6.6.6.6.6.6.",
"6.6.6.6.6.= = = = = = = = A 5.5.5.5.5.5.5.5.5.5.5.5.5.5.5.5.5.5.5.5.5.5.5.5.5.5.&.v 7 = = = = = = = = = = = = = = = = 6.6.6.6.6.",
"6.6.6.6.6.= = = = = = = = A 5.5.5.5.5.5.5.5.5.5.5.5.5.5.5.5.5.5.5.5.5.5.5.5.5.5.5.5.5.'   = = = = = = = = = = = = = = 6.6.6.6.6.",
"6.6.6.6.= = = = = = = = = A 5.5.5.5.5.5.5.5.5.5.5.5.5.5.5.5.5.5.5.5.5.5.5.5.5.5.5.5.5.5.5.S : % = = = = = = = = = = = = 6.6.6.6.",
"6.6.6.= = = = = = = = = = A 5.5.5.5.5.5.5.5.5.5.5.5.5.5.5.5.5.5.5.5.5.5.5.5.5.5.5.5.5.5.5.5.] % = = = = = = = = = = = = = 6.6.6.",
"6.6.6.= = = = = = = = = = A 5.5.5.5.5.5.5.5.5.5.5.5.5.5.5.5.5.5.5.5.3.5.5.5.5.5.5.5.5.5.5.5.5.C = = = = = = = = = = = = = 6.6.6.",
"6.6.6.= = = = = = = = = = : 1 1 1 5 k >.5.5.5.5.5.5.5.5.Y k j j k C ( +.5.5.5.5.5.5.5.5.5.5.5.>.: = = = = = = = = = = = = 6.6.6.",
"6.6.= = = = = = = = = = = = = = = = = M 5.5.5.5.5.5.5.5.+ = = = - = = = r J 3.5.5.5.5.5.5.5.5.5.a % = = = = = = = = = = = = 6.6.",
"6.6.= = = = = = = = = = = = = = = = = i 5.5.5.5.5.5.5.5.+ = = = - - = = = = C 5.5.5.5.5.5.5.5.5.I = = = = = = = = = = = = = 6.6.",
"6.= = = = = = = = = = = = = = = = = = y 5.5.5.5.5.5.5.5.+ = = = = = = = = = - +.5.5.5.5.5.5.5.5.( = = = = = = = = = = = = = = 6.",
"6.= = = = = = = = = = = = = = = = = = y 5.5.5.5.5.5.5.5.+ = = = = = = = = - - ! 5.5.5.5.5.5.5.5.S = = = = = = = = = = = = = = 6.",
"6.= = = = = = = = = = = = = = = = = = y 5.5.5.5.5.5.5.5.+ = = = = = = = = = = U 5.5.5.5.5.5.5.5.Y = = = = = = = = = = = = = = 6.",
"6.= = = = = = = = = = = = = = = = = = y 5.5.5.5.5.5.5.5.+ = = = = = = = = = - } 5.5.5.5.5.5.5.5.k = = = = = = = = = = = = = = 6.",
"= = = = = = = = = = = = = = = = = = = y 5.5.5.5.5.5.5.5.+ = = = = = = = = - X 3.5.5.5.5.5.5.5.>.1 - = = = = = = = = = = = = = = ",
"= = = = = = = = = = = = = = = = = = = y 5.5.5.5.5.5.5.5.+ = = = = = = = - c ,.5.5.5.5.5.5.5.5.A = = = = = = = = = = = = = = = = ",
"= = = = = = = = = = = = = = = = = = = y 5.5.5.5.5.5.5.5.+ = = % 3 e j Y X.5.5.5.5.5.5.5.5.5.} - = = = = = = = = = = = = = = = = ",
"= = = = = = = = = = = = = = = = = = = y 5.5.5.5.5.5.5.5.5.5.5.5.5.5.5.5.3.5.5.5.5.5.5.5.5.Y - = = = = = = = = = = = = = = = = = ",
"= = = = = = = = = = = = = = = = = = = y 5.5.5.5.5.5.5.5.5.5.5.5.5.5.5.5.5.5.5.5.5.5.5.5.%.~ y = = = = = = = = = = = = = = = = = ",
"= = = = = = = = = = = = = = = = = = = y 5.5.5.5.5.5.5.5.5.5.5.5.5.5.5.5.5.5.5.5.5.5.5.5.5.5.5.` 7 = = = = = = = = = = = = = = = ",
"= = = = = = = = = = = = = = = = = = - y 5.5.5.5.5.5.5.5.5.5.5.5.5.5.5.5.5.5.5.5.5.5.5.5.5.5.5.5.%.. - - = = = = = = = = = = = = ",
"= = = = = = = = = = = = = = = = = = = i 5.5.5.5.5.5.5.5.=.&.@.@.&.%.3.3.5.5.5.5.5.5.5.5.5.5.5.5.5.:.7 = = = = = = = = = = = = = ",
"= = = = = = = = = = = = = = = = = = = e 5.5.5.5.5.5.5.5.+ - = = - = - q a ! &.5.5.5.5.5.5.5.5.5.5.5.P - = = = = = = = = = = = = ",
"= = = = = = = = = = = = = = = = = = - i 5.5.5.5.5.5.5.3.+ - = = - = - - = - * c >.5.5.5.5.5.5.5.5.5.1.: = = = = = = = = = = = = ",
"= = = = = = = = = = = = = = = = = = = y 5.5.5.5.5.5.5.5.+ = = = = = = = = = = = X 3.5.5.5.5.5.5.5.5.5.O - - = = = = = = = = = = ",
"= = = = = = = = = = = = = = = = = = = y 5.5.5.5.5.5.5.5.+ = = = = = = = = = = = - H 5.5.5.5.5.5.5.5.3.c = = = = = = = = = = = = ",
"6.= = = = = = = = = = = = = = = = = = y 5.5.5.5.5.5.5.5.+ = = = = = = = = = = = - g 5.5.5.5.5.5.5.5.5.M = = = = = = = = = = = 6.",
"6.= = = = = = = = = = = = = = = = = = y 5.5.5.5.5.5.5.5.+ = = = = = = = = = = = - @ 5.5.5.5.5.5.5.5.5.v = = = = = = = = = = = 6.",
"6.= = = = = = = = = = = = = = = = = = y 5.5.5.5.5.5.5.5.+ - = = = = = = = = = = = C 3.5.5.5.5.5.5.5.5.f = = = = = = = = = = = 6.",
"6.= = = = = = = = = = = = = = = = = = y 5.5.5.5.5.5.5.5.+ = = = = = = = = = = = 2 &.5.5.5.5.5.5.5.5.5.r = = = = = = = = = = = 6.",
"6.6.= = = = = = = = = = = = = = = = =   5.5.5.5.5.5.5.5.+ = = = = = = = - = - 7  .5.5.5.5.5.5.5.5.5.:.- = = = = = = = = = = 6.6.",
"6.6.= = = = = = = = = = = = = = = = = v 5.5.5.5.5.5.5.5.+ = = = = = = = : + ( 3.5.5.5.5.5.5.5.5.5.5.S = = = = = = = = = = = 6.6.",
"6.6.6.= = = = = = = = = = = f Q Q Q J 1.5.5.5.5.5.5.5.5.H A A I I ! L $.,.5.5.5.5.5.5.5.5.5.5.5.5.5.r = = = = = = = = = = 6.6.6.",
"6.6.6.= = = = = = = = = = = } 5.5.5.3.5.5.5.5.5.5.5.5.5.3.5.5.5.5.5.5.5.5.5.5.5.5.5.5.5.5.5.5.5.5.Q = = = = = = = = = = = 6.6.6.",
"6.6.6.= = = = = = = = - = = @.5.5.5.5.5.5.5.5.5.5.5.5.5.5.5.5.5.5.5.5.5.5.5.5.5.5.5.5.5.5.5.5.5.[ * = = = = = = = = = = = 6.6.6.",
"6.6.6.6.= = = = = = = - - : 3.5.5.5.5.5.5.5.5.5.5.5.5.5.5.5.5.5.5.5.5.5.5.5.5.5.5.5.5.5.5.5.3.Q * = = = = = = = = = = = 6.6.6.6.",
"6.6.6.6.6.= = = = = = = = p 5.5.5.5.5.5.5.5.5.5.5.5.5.5.5.5.5.5.5.5.5.5.5.5.5.5.5.5.5.5.1.P r = = = = = = = = = = = = 6.6.6.6.6.",
"6.6.6.6.6.= = = = = = = = k 5.5.5.5.5.5.5.5.5.5.5.5.5.5.5.5.5.5.5.5.5.5.5.5.5.5.5.5.L k 1 - - = = = = = = = = = = = = 6.6.6.6.6.",
"6.6.6.6.6.6.= = = = = = = r a a # # # # a >.5.5.5.5.} b v M M M M M k k j =.5.5.5.5.W - - = = = = = = = = = = = = = 6.6.6.6.6.6.",
"6.6.6.6.6.6.6.= = = = = = = = = = = = = $ 5.5.5.5.5.w - = = = = - - = = - I 5.5.5.5.=.- = = = = = = = = = = = = = 6.6.6.6.6.6.6.",
"6.6.6.6.6.6.6.= = = = = = = = = = = = = } 5.5.5.5...= = = = = = = = = = = q 5.5.5.5.5.f = = = = = = = = = = = = = 6.6.6.6.6.6.6.",
"6.6.6.6.6.6.6.6.= = = = = = = = = = = 5 3.5.5.5.5.j = = = = = = = = = = = = [ 5.5.5.5.} = = = = = = = = = = = = 6.6.6.6.6.6.6.6.",
"6.6.6.6.6.6.6.6.6.= = = = = = = = = - p Q Q Q Q Q : = = = = = = = = = = = = X Q Q Q Q Q - - = = = = = = = = = 6.6.6.6.6.6.6.6.6.",
"6.6.6.6.6.6.6.6.6.6.= = = = = = = = = = = = = = = = = = = = = = = = = = = = = = = = = = = = = = = = = = = = 6.6.6.6.6.6.6.6.6.6.",
"6.6.6.6.6.6.6.6.6.6.6.= = = = = = = = = = = = = = = = = = = = = = = = = = = = = = = = = = = = = = = = = = 6.6.6.6.6.6.6.6.6.6.6.",
"6.6.6.6.6.6.6.6.6.6.6.6.6.= = = = = = = = = = = = = = = = = = = = = = = = = = = = = = = = = = = = = = 6.6.6.6.6.6.6.6.6.6.6.6.6.",
"6.6.6.6.6.6.6.6.6.6.6.6.6.6.= = = = = = = = = = = = = = = = = = = = = = = = = = = = = = = = = = = = 6.6.6.6.6.6.6.6.6.6.6.6.6.6.",
"6.6.6.6.6.6.6.6.6.6.6.6.6.6.6.6.= = = = = = = = = = = = = = = = = = = = = = = = = = = = = = = = 6.6.6.6.6.6.6.6.6.6.6.6.6.6.6.6.",
"6.6.6.6.6.6.6.6.6.6.6.6.6.6.6.6.6.= = = = = = = = = = = = = = = = = = = = = = = = = = = = = = 6.6.6.6.6.6.6.6.6.6.6.6.6.6.6.6.6.",
"6.6.6.6.6.6.6.6.6.6.6.6.6.6.6.6.6.6.6.6.= = = = = = = = = = = = = = = = = = = = = = = = 6.6.6.6.6.6.6.6.6.6.6.6.6.6.6.6.6.6.6.6.",
"6.6.6.6.6.6.6.6.6.6.6.6.6.6.6.6.6.6.6.6.6.6.= = = = = = = = = = = = = = = = = = = = 6.6.6.6.6.6.6.6.6.6.6.6.6.6.6.6.6.6.6.6.6.6.",
"6.6.6.6.6.6.6.6.6.6.6.6.6.6.6.6.6.6.6.6.6.6.6.6.6.6.= = = = = = = = = = = = 6.6.6.6.6.6.6.6.6.6.6.6.6.6.6.6.6.6.6.6.6.6.6.6.6.6."
};
