/* XPM */
static char *Free_Converter_com_bitcoin16_gy_96582246[] = {
/* columns rows colors chars-per-pixel */
"16 16 53 1 ",
"  c #4B4948",
". c #4C4948",
"X c #4C4A48",
"o c #4D4A48",
"O c #4F4C48",
"+ c #514D47",
"@ c #555146",
"# c #575246",
"$ c #595346",
"% c #595446",
"& c #605945",
"* c #645C44",
"= c #655D44",
"- c #776C40",
"; c #7E7140",
": c #82743F",
"> c #87763E",
", c #8B7A3E",
"< c #8F7D3D",
"1 c #917E3C",
"2 c #97833B",
"3 c #99853A",
"4 c #9E883A",
"5 c #A18A39",
"6 c #A38C38",
"7 c #A58D38",
"8 c #AA9136",
"9 c #AE9536",
"0 c #B79C33",
"q c #B49934",
"w c #B49935",
"e c #B59A34",
"r c #BB9E33",
"t c #BD9F31",
"y c #C8A82E",
"u c #CAAA2E",
"i c #CCAB2D",
"p c #CFAD2C",
"a c #DBB727",
"s c #DFBA26",
"d c #DAB628",
"f c #DBB628",
"g c #C2A430",
"h c #C3A430",
"j c #E5BE23",
"k c #E0BA26",
"l c #E0BB26",
"z c #EEC51F",
"x c #F2C81E",
"c c #E9C122",
"v c #EAC222",
"b c #EBC322",
"n c None",
/* pixels */
"nnnnn      nnnnn",
"nnn          nnn",
"nn   38 .w<   nn",
"n  >8hxwrx4O   n",
"n  5sxxjbxxp.  n",
"    $xx@ 1xx*   ",
"    @xx@ >xb@   ",
"    @xxiaxx0.   ",
"    @xx75yxx9   ",
"    @xx@ Xgxa   ",
"    %xx@ *axy   ",
"n  2bxxlbxxz;  n",
"n  ,wllewjp&.  n",
"nn  +t-  :0.  nn",
"nnn          nnn",
"nnnnn      nnnnn"
};
