/* XPM */
static char *Free_Converter_com_bitcoin32_gy_60782247[] = {
/* columns rows colors chars-per-pixel */
"32 32 86 1 ",
"  c #6F653F",
". c #71663F",
"X c #74683E",
"o c #74693E",
"O c #75693E",
"+ c #7F713B",
"@ c #4E4B47",
"# c #4E4C47",
"$ c #4F4C47",
"% c #4B4948",
"& c #4C4A48",
"* c #504D47",
"= c #524F46",
"- c #534F46",
"; c #555145",
": c #575245",
"> c #545046",
", c #585345",
"< c #595445",
"1 c #5B5544",
"2 c #5E5843",
"3 c #605943",
"4 c #615A43",
"5 c #635B42",
"6 c #675F41",
"7 c #655D42",
"8 c #696041",
"9 c #6A6140",
"0 c #6B6240",
"q c #6C6340",
"w c #6D6340",
"e c #6E6440",
"r c #83743A",
"t c #877739",
"y c #84753A",
"u c #8B7A39",
"i c #8C7B38",
"p c #8E7D38",
"a c #928037",
"s c #948136",
"d c #978336",
"f c #9A8635",
"g c #9C8735",
"h c #9E8934",
"j c #B59A2F",
"k c #BA9E2D",
"l c #B99D2E",
"z c #A08A34",
"x c #A99131",
"c c #AD9430",
"v c #AF9530",
"b c #BDA02D",
"n c #C6A72B",
"m c #C0A22C",
"M c #C7A82A",
"N c #C9A92A",
"B c #CDAD29",
"V c #CFAE28",
"C c #D1AF28",
"Z c #D3B127",
"A c #D7B426",
"S c #DBB725",
"D c #D9B626",
"F c #DAB726",
"G c #DCB825",
"H c #DEBA25",
"J c #DFBA25",
"K c #D1B028",
"L c #D3B128",
"P c #E4BE23",
"I c #E5BF23",
"U c #E0BB24",
"Y c #E1BC24",
"T c #E2BC24",
"R c #E3BD24",
"E c #E8C122",
"W c #E8C123",
"Q c #E9C222",
"! c #EAC322",
"~ c #EBC422",
"^ c #EDC521",
"/ c #EFC621",
"( c #EFC721",
") c #F1C820",
"_ c #F2C920",
"` c None",
/* pixels */
"````````````%%%%%%%%````````````",
"`````````%%%%%%%%%%%%%%`````````",
"```````%%%%%%%%%%%%%%%%%%```````",
"``````%%%%%%%%%%%%%%%%%%%%``````",
"`````%%%%%7+r3%%%%0++<%%%%%`````",
"````%%%%%%O__k%%%%S_^:%%%%%%````",
"```%%%*3424S_^034r__k%%%%%%%%```",
"``%%%%O_____________Sf:%%%%%%%``",
"``%%%%O_______________Tw%%%%%%``",
"`%%%%%3xxG____ZmMW_____S%%%%%%%`",
"`%%%%%%%%0____3%%%eT____ %%%%%%`",
"`%%%%%%%%3____3%%%%u____r%%%%%%`",
"%%%%%%%%%3____3%%%%y____o%%%%%%%",
"%%%%%%%%%3____3%%%2L___U$%%%%%%%",
"%%%%%%%%%3____xzvM^___Tw%%%%%%%%",
"%%%%%%%%%3____________Gh*%%%%%%%",
"%%%%%%%%%4____QQ^_______V*%%%%%%",
"%%%%%%%%%2____4%%>ov_____a%%%%%%",
"%%%%%%%%%4____4%%%%%f____b%%%%%%",
"%%%%%%%%%2____2%%%%%0____n%%%%%%",
"`%%%%%%%%4)___2%%%%%p____j%%%%%`",
"`%%%%%%%%8____4%%%<d~____p%%%%%`",
"`%%%%%%kLP____LNVT______T*%%%%%`",
"``%%%%%)_______________Te%%%%%``",
"``%%%%0______________Va:%%%%%%``",
"```%%%*000k__yOOO0g__u%%%%%%%```",
"````%%%%%*W_L%%%%%=Q_V%%%%%%````",
"`````%%%%:++7%%%%%%e++%%%%%`````",
"``````%%%%%%%%%%%%%%%%%%%%``````",
"```````%%%%%%%%%%%%%%%%%%```````",
"`````````%%%%%%%%%%%%%%`````````",
"````````````%%%%%%%%````````````"
};
