<?xml version="1.0" encoding="utf-8"?>
<!-- Generator: Adobe Illustrator 21.0.0, SVG Export Plug-In . SVG Version: 6.00 Build 0)  -->
<svg version="1.1"
	 id="svg2" inkscape:version="0.48.2 r9819" sodipodi:docname="bitcoin-logo-noshadow.svg" xmlns:cc="http://creativecommons.org/ns#" xmlns:dc="http://purl.org/dc/elements/1.1/" xmlns:inkscape="http://www.inkscape.org/namespaces/inkscape" xmlns:rdf="http://www.w3.org/1999/02/22-rdf-syntax-ns#" xmlns:sodipodi="http://sodipodi.sourceforge.net/DTD/sodipodi-0.dtd" xmlns:svg="http://www.w3.org/2000/svg"
	 xmlns="http://www.w3.org/2000/svg" xmlns:xlink="http://www.w3.org/1999/xlink" x="0px" y="0px" viewBox="0 0 1024 1024"
	 style="enable-background:new 0 0 1024 1024;" xml:space="preserve">
<style type="text/css">
	.st0{fill:#4C4948;}
	.st1{fill:#F2C81C;}
</style>
<g>
	<circle class="st0" cx="512.9" cy="514" r="451"/>
	<polygon class="st1" points="612.5,323.9 662.5,196.8 582.9,196.8 533.7,323.9 	"/>
	<polygon class="st1" points="443.2,703.8 443.2,558.3 337.7,831.4 412.9,831.4 463.1,703.8 	"/>
	<polygon class="st1" points="443.2,323.9 486.7,323.9 437.5,196.8 357.9,196.8 443.2,413.6 	"/>
	<polygon class="st1" points="633.4,703.8 557.3,703.8 607.5,831.4 682.7,831.4 	"/>
	<path class="st1" d="M389.8,257.9c-9.8,0.3-24.1,0.4-43.1,0.4l-94.2-0.4v72.9h49.3c22.5,0,35.7,10.1,39.5,30.2v127.5v0.4l0,0v178.6
		c-2.4,15.1-11,22.7-25.8,22.7h-49.3l-13.8,81.3h88.8c5.6,0,13.8,0.1,24.4,0.2c10.7,0.1,18.7,0.2,24,0.2l0,0l68.4,1.3l0,0
		c12.4,0.3,30.5,0.4,54.2,0.4l0,0l68.4-1.8l0,0c24.3-1.2,45.8-3.4,64.6-6.7c18.8-3.3,36.8-8.4,54-15.3c17.2-7,31.5-15.6,43.1-26
		c11.5-10.4,21.1-23.5,28.7-39.5c7.5-16,12.4-34.5,14.4-55.5c3.9-41.1-2.8-72.8-20-95.1l0,0c-17.2-22.2-43.1-37.5-77.7-45.7
		c44.1-22.5,63.5-60.7,58.2-114.6c-1.8-19.5-7.2-36.5-16.2-50.8c-9-14.4-21.2-25.9-36.7-34.6c-15.4-8.7-32.1-15.4-50.2-20
		c-18.1-4.6-38.8-7.9-62.2-10 M459.6,335.6c2.1,0,7.9-0.1,17.5-0.2c9.6-0.2,17.6-0.3,24-0.4c6.4-0.1,15,0.2,25.8,1.1
		c10.8,0.9,19.9,2.1,27.3,3.6c7.4,1.5,15.6,3.9,24.4,7.3c8.9,3.4,16,7.5,21.3,12.4c5.3,4.9,9.8,11.1,13.5,18.7
		c3.7,7.6,5.6,16.2,5.6,26c0,8.3-1.3,15.8-4,22.7c-2.7,6.8-6.7,12.5-12,17.1c-5.3,4.6-10.8,8.6-16.4,12c-5.6,3.4-12.8,6.1-21.5,8.2
		c-8.7,2.1-16.4,3.7-22.9,4.9c-6.5,1.2-14.7,2-24.4,2.4c-9.8,0.4-17.2,0.7-22.2,0.9c-5,0.1-11.9,0.1-20.7,0
		c-8.7-0.1-13.8-0.2-15.3-0.2L459.6,335.6L459.6,335.6z M646.4,638.2c-2.8,6.8-6.4,12.7-10.9,17.8c-4.4,5-10.3,9.5-17.6,13.3
		c-7.3,3.9-14.3,7-21.1,9.3c-6.8,2.4-15,4.4-24.7,6.2c-9.6,1.8-18.1,3-25.3,3.8c-7.3,0.7-15.9,1.3-26,1.8
		c-10.1,0.4-17.9,0.7-23.5,0.7c-5.6,0-12.7-0.1-21.3-0.2c-8.6-0.1-14.1-0.2-16.4-0.2V540.4c2.4,0,9.4-0.1,21.1-0.4
		c11.7-0.3,21.3-0.4,28.7-0.4c7.4,0,17.6,0.4,30.7,1.3c13,0.9,24,2.2,32.9,4c8.9,1.8,18.6,4.5,29.1,8.2c10.5,3.7,19,8.2,25.5,13.5
		c6.5,5.3,12,12.1,16.4,20.4c4.4,8.3,6.7,17.8,6.7,28.4C650.6,623.8,649.2,631.4,646.4,638.2L646.4,638.2z M646.4,638.2"/>
</g>
</svg>
